<svg id="Capa_1" data-name="Capa 1" xmlns="http://www.w3.org/2000/svg" viewBox="0 0 792 612"><defs><style>.cls-1{fill:#d7245d;}</style></defs><title>CuartoLogo</title><polygon class="cls-1" points="556.71 582.62 235.29 582.62 235.29 52.07 556.71 52.07 556.71 425.28 536.24 425.28 536.24 72.54 255.76 72.54 255.76 562.15 536.24 562.15 536.24 530.95 556.71 530.95 556.71 582.62"/><path class="cls-1" d="M494.79,362.53a16.27,16.27,0,1,1,16.27-16.27A16.28,16.28,0,0,1,494.79,362.53Z"/><path class="cls-1" d="M209,52.63V582.81h-68.6V142.09H89.66l69.59-89.47Z"/><path class="cls-1" d="M324.84,493.69l6.25,5.61q-11.45,10.44-24.24,10.44a33,33,0,0,1,0-65.94q12.78,0,24.24,10.44l-6.25,5.69q-8.63-7.66-18-7.66a24.54,24.54,0,0,0,0,49.08Q316.21,501.35,324.84,493.69Z"/><path class="cls-1" d="M376.62,444.53H385V490a22.59,22.59,0,0,1-6.41,13.15,21.94,21.94,0,0,1-37.46-15.49V444.53h8.39v43.11a13.55,13.55,0,0,0,27.1,0Z"/><path class="cls-1" d="M419.45,444.53l23.47,64.53h-8.87l-8.31-22.83h-17.1l-8.27,22.83h-8.91l23.47-64.53Zm3.27,33.35-5.52-15.12-5.48,15.12Z"/><path class="cls-1" d="M467,488.4h-7.62v20.65H451V444.53H469.3a22.29,22.29,0,0,1,13.14,6.41,22,22,0,0,1,0,31.05q-4.43,4.44-6.78,5L490,509.05H479.87Zm-7.62-35.49V480H467a13.55,13.55,0,0,0,0-27.1Z"/><path class="cls-1" d="M518.22,452.87v56.18h-8.39V452.87h-15v-8.35h38.47v8.35Z"/><path class="cls-1" d="M593.75,453.36a33,33,0,1,1-23.35-9.68A31.82,31.82,0,0,1,593.75,453.36Zm-23.35-1.25a24.57,24.57,0,1,0,17.4,7.2A23.71,23.71,0,0,0,570.4,452.11Z"/><path class="cls-1" d="M702.34,52.63V582.81h-68.6V142.09H583l69.59-89.47Z"/></svg>